<svg width="100%" height="100%" id="svg" viewBox="0 0 1440 400" xmlns="http://www.w3.org/2000/svg" class="transition duration-300 ease-in-out delay-150"><path d="M 0,400 C 0,400 0,133 0,133 C 56.88040920986545,123.51481667503768 113.7608184197309,114.02963335007536 159,125 C 204.2391815802691,135.97036664992464 237.83713553094185,167.39628327473628 281,162 C 324.16286446905815,156.60371672526372 376.8906394565016,114.38523355097944 424,117 C 471.1093605434984,119.61476644902056 512.6003066430517,167.06278252134604 560,178 C 607.3996933569483,188.93721747865396 660.7081339712919,163.36363636363635 711,148 C 761.2918660287081,132.63636363636365 808.5671574717809,127.48267202410851 851,123 C 893.4328425282191,118.51732797589149 931.0232361415844,114.70567553992967 983,120 C 1034.9767638584156,125.29432446007033 1101.3398979618814,139.6946258161728 1157,141 C 1212.6601020381186,142.3053741838272 1257.617172010891,130.5158211953792 1303,127 C 1348.382827989109,123.4841788046208 1394.1914139945545,128.2420894023104 1440,133 C 1440,133 1440,400 1440,400 Z" stroke="none" stroke-width="0" fill="#01162788" class="transition-all duration-300 ease-in-out delay-150 path-0" transform="rotate(-180 720 200)"></path><path d="M 0,400 C 0,400 0,266 0,266 C 57.86277723439689,269.2571307726876 115.72555446879377,272.51426154537523 168,285 C 220.27444553120623,297.48573845462477 266.96055935922175,319.2000845911867 308,304 C 349.03944064077825,288.7999154088133 384.4322080943192,236.68540008987813 423,226 C 461.5677919056808,215.31459991012187 503.31060826350154,246.0583150493008 553,270 C 602.6893917364985,293.9416849506992 660.3253588516748,311.0813397129187 707,305 C 753.6746411483252,298.9186602870813 789.3879563297999,269.6163260990245 844,268 C 898.6120436702001,266.3836739009755 972.1228158291258,292.4533558909831 1026,294 C 1079.8771841708742,295.5466441090169 1114.120780353697,272.570250337043 1158,277 C 1201.879219646303,281.429749662957 1255.3940627560867,313.2656427608449 1304,316 C 1352.6059372439133,318.7343572391551 1396.3029686219566,292.36717861957754 1440,266 C 1440,266 1440,400 1440,400 Z" stroke="none" stroke-width="0" fill="#011627ff" class="transition-all duration-300 ease-in-out delay-150 path-1" transform="rotate(-180 720 200)"></path></svg>