<svg width="100%" height="100%" id="svg" viewBox="0 0 1440 700" xmlns="http://www.w3.org/2000/svg" class="transition duration-300 ease-in-out delay-150"><path d="M 0,700 C 0,700 0,175 0,175 C 49.05408244605135,157.5172180151455 98.1081648921027,140.03443603029095 136,144 C 173.8918351078973,147.96556396970905 200.62142287764044,173.3794738939817 231,182 C 261.37857712235956,190.6205261060183 295.4061435973353,182.44766839378238 338,184 C 380.5938564026647,185.55233160621762 431.7540027330183,196.82985253088881 478,212 C 524.2459972669817,227.17014746911119 565.5778454705916,246.23292148266242 599,232 C 632.4221545294084,217.76707851733758 657.9346153846153,170.23846153846154 700,143 C 742.0653846153847,115.76153846153848 800.6836929909468,108.81323236349144 844,137 C 887.3163070090532,165.18676763650856 915.330612651597,228.50860900757272 949,231 C 982.669387348403,233.49139099242728 1021.9938564026647,175.1523316062176 1064,166 C 1106.0061435973353,156.8476683937824 1150.693961737744,196.88206456755682 1192,189 C 1233.306038262256,181.11793543244318 1271.2302966463587,125.31941012355519 1312,115 C 1352.7697033536413,104.68058987644481 1396.3848516768207,139.8402949382224 1440,175 C 1440,175 1440,700 1440,700 Z" stroke="none" stroke-width="0" fill="#01162766" class="transition-all duration-300 ease-in-out delay-150 path-0" transform="rotate(-180 720 350)"></path><path d="M 0,700 C 0,700 0,350 0,350 C 38.00536165043937,336.573719372165 76.01072330087874,323.1474387443299 118,333 C 159.98927669912126,342.8525612556701 205.9624684469244,375.98396439484526 245,389 C 284.0375315530756,402.01603560515474 316.1394029114237,394.91670367628916 352,371 C 387.8605970885763,347.08329632371084 427.479919907381,306.34922089999816 466,286 C 504.520080092619,265.65077910000184 541.9409174590521,265.6864127237184 580,294 C 618.0590825409479,322.3135872762816 656.7564102564103,378.9051282051282 698,377 C 739.2435897435897,375.0948717948718 783.0334415153068,314.69307445576874 821,302 C 858.9665584846932,289.30692554423126 891.1098236823626,324.32257397179677 940,343 C 988.8901763176374,361.67742602820323 1054.527263755243,364.0166296570441 1099,350 C 1143.472736244757,335.9833703429559 1166.781121296665,305.6109074000266 1202,301 C 1237.218878703335,296.3890925999734 1284.3482510580957,317.5397407428496 1326,330 C 1367.6517489419043,342.4602592571504 1403.8258744709522,346.23012962857524 1440,350 C 1440,350 1440,700 1440,700 Z" stroke="none" stroke-width="0" fill="#01162788" class="transition-all duration-300 ease-in-out delay-150 path-1" transform="rotate(-180 720 350)"></path><path d="M 0,700 C 0,700 0,525 0,525 C 28.364353090777954,508.34861925639126 56.72870618155591,491.6972385127825 101,494 C 145.2712938184441,496.3027614872175 205.44952836455428,517.5596652052611 248,515 C 290.5504716354457,512.4403347947389 315.47318036022693,486.06410066617315 349,497 C 382.52681963977307,507.93589933382685 424.65775019453775,556.1839321300462 462,561 C 499.34224980546225,565.8160678699538 531.8958188616219,527.2001708136422 580,510 C 628.1041811383781,492.7998291863577 691.7589743589743,497.0153846153846 733,493 C 774.2410256410257,488.9846153846154 793.0682837024805,476.73829072481925 829,473 C 864.9317162975195,469.26170927518075 917.9678908311033,474.03145248533855 959,480 C 1000.0321091688967,485.96854751466145 1029.0601529731064,493.13589933382684 1070,514 C 1110.9398470268936,534.8641006661732 1163.7914972764713,569.4249501793543 1211,581 C 1258.2085027235287,592.5750498206457 1299.7738579210081,581.164299948756 1337,568 C 1374.2261420789919,554.835700051244 1407.113071039496,539.917850025622 1440,525 C 1440,525 1440,700 1440,700 Z" stroke="none" stroke-width="0" fill="#011627ff" class="transition-all duration-300 ease-in-out delay-150 path-2" transform="rotate(-180 720 350)"></path></svg>